<svg width="44" height="44" viewBox="0 0 44 44" fill="none" xmlns="http://www.w3.org/2000/svg">
<rect x="2.82843" y="24.7487" width="27" height="27" rx="1" transform="rotate(-45 2.82843 24.7487)" fill="black"/>
<path d="M3.53554 19.799C3.14501 19.4085 3.14501 18.7753 3.53554 18.3848L21.2132 0.707098C21.6037 0.316574 22.2369 0.316574 22.6274 0.707099L40.3051 18.3848C40.6956 18.7753 40.6956 19.4085 40.3051 19.799L22.6274 37.4766C22.2369 37.8672 21.6037 37.8672 21.2132 37.4766L3.53554 19.799Z" fill="black"/>
<rect x="4.24265" y="19.0919" width="25" height="25" rx="2" transform="rotate(-45 4.24265 19.0919)" fill="#F97777"/>
<rect x="9.89949" y="19.0919" width="17" height="17" rx="1" transform="rotate(-45 9.89949 19.0919)" fill="black"/>
<rect x="15.5563" y="19.0919" width="9" height="9" transform="rotate(-45 15.5563 19.0919)" fill="#F97777"/>
<rect x="19.799" y="19.0919" width="3" height="3" transform="rotate(-45 19.799 19.0919)" fill="black"/>
</svg>
